HIERARCHY
ROOT Hips
{
	OFFSET 0.000000 0.000000 0.000000
	CHANNELS 6 Xposition Yposition Zposition Xrotation Yrotation Zrotation
	JOINT LeftUpLeg_virtual
	{
		OFFSET 0.000000 0.000000 0.000000
		CHANNELS 3 Xrotation Yrotation Zrotation
		JOINT LeftUpLeg
		{
			OFFSET 10.205400 -3.823500 0.155100
			CHANNELS 3 Xrotation Yrotation Zrotation
			JOINT LeftLeg
			{
				OFFSET 0.708757 -12.982077 0.567790
				CHANNELS 3 Xrotation Yrotation Zrotation
				JOINT LeftFoot
				{
					OFFSET -0.708756 -10.717838 -2.184338
					CHANNELS 3 Xrotation Yrotation Zrotation
					JOINT LeftToeBase
					{
						OFFSET 0.108149 -7.191104 7.560241
						CHANNELS 3 Xrotation Yrotation Zrotation
						JOINT LeftToe_End
						{
							OFFSET 0.070230 0.081724 4.490308
							CHANNELS 3 Xrotation Yrotation Zrotation
							End Site
							{
								OFFSET 0 0 0
							}
						}
					}
				}
			}
		}
	}
	JOINT RightUpLeg_virtual
	{
		OFFSET 0.000000 0.000000 0.000000
		CHANNELS 3 Xrotation Yrotation Zrotation
		JOINT RightUpLeg
		{
			OFFSET -10.205400 -3.823500 0.005500
			CHANNELS 3 Xrotation Yrotation Zrotation
			JOINT RightLeg
			{
				OFFSET -0.708756 -12.982134 0.610632
				CHANNELS 3 Xrotation Yrotation Zrotation
				JOINT RightFoot
				{
					OFFSET 0.708754 -10.717769 -1.945823
					CHANNELS 3 Xrotation Yrotation Zrotation
					JOINT RightToeBase
					{
						OFFSET -0.108140 -7.191069 7.372968
						CHANNELS 3 Xrotation Yrotation Zrotation
						JOINT RightToe_End
						{
							OFFSET -0.070227 0.081735 4.479403
							CHANNELS 3 Xrotation Yrotation Zrotation
							End Site
							{
								OFFSET 0 0 0
							}
						}
					}
				}
			}
		}
	}
	JOINT Spine_virtual
	{
		OFFSET 0.000000 0.000000 0.000000
		CHANNELS 3 Xrotation Yrotation Zrotation
		JOINT Spine
		{
			OFFSET 0.000000 6.876099 0.125700
			CHANNELS 3 Xrotation Yrotation Zrotation
			JOINT Spine1
			{
				OFFSET 0.000000 5.730043 0.104720
				CHANNELS 3 Xrotation Yrotation Zrotation
				JOINT Spine1_split
				{
					OFFSET 0.000000 5.730043 0.104720
					CHANNELS 3 Xrotation Yrotation Zrotation
					JOINT Spine2
					{
						OFFSET 0.000000 5.730043 0.104720
						CHANNELS 3 Xrotation Yrotation Zrotation
						JOINT Neck_virtual
						{
							OFFSET 0.000000 0.000000 0.000000
							CHANNELS 3 Xrotation Yrotation Zrotation
							JOINT Neck
							{
								OFFSET 0.000000 10.314075 0.188496
								CHANNELS 3 Xrotation Yrotation Zrotation
								JOINT Head
								{
									OFFSET 0.000000 7.643700 -2.377400
									CHANNELS 3 Xrotation Yrotation Zrotation
									JOINT HeadTop_End
									{
										OFFSET 0.000000 43.788605 -13.619600
										CHANNELS 3 Xrotation Yrotation Zrotation
										End Site
										{
											OFFSET 0 0 0
										}
									}
								}
							}
						}
						JOINT LeftShoulder_virtual
						{
							OFFSET 0.000000 0.000000 0.000000
							CHANNELS 3 Xrotation Yrotation Zrotation
							JOINT LeftShoulder
							{
								OFFSET 2.196100 4.412489 0.087492
								CHANNELS 3 Xrotation Yrotation Zrotation
								JOINT LeftShoulder_split
								{
									OFFSET 2.196100 4.412489 0.087492
									CHANNELS 3 Xrotation Yrotation Zrotation
									JOINT LeftArm
									{
										OFFSET 8.771219 -2.981674 -0.026999
										CHANNELS 3 Xrotation Yrotation Zrotation
										JOINT LeftForeArm
										{
											OFFSET 8.512804 0.000000 -0.000000
											CHANNELS 3 Xrotation Yrotation Zrotation
											JOINT LeftHand
											{
												OFFSET 18.484802 0.000000 -0.000000
												CHANNELS 3 Xrotation Yrotation Zrotation
												End Site
												{
													OFFSET 0 0 0
												}
											}
										}
									}
								}
							}
						}
						JOINT RightShoulder_virtual
						{
							OFFSET 0.000000 0.000000 0.000000
							CHANNELS 3 Xrotation Yrotation Zrotation
							JOINT RightShoulder
							{
								OFFSET -2.196100 4.412496 0.070690
								CHANNELS 3 Xrotation Yrotation Zrotation
								JOINT RightShoulder_split
								{
									OFFSET -2.196100 4.412496 0.070690
									CHANNELS 3 Xrotation Yrotation Zrotation
									JOINT RightArm
									{
										OFFSET -8.771282 -2.981682 -0.094208
										CHANNELS 3 Xrotation Yrotation Zrotation
										JOINT RightForeArm
										{
											OFFSET -8.494598 0.000000 0.000000
											CHANNELS 3 Xrotation Yrotation Zrotation
											JOINT RightHand
											{
												OFFSET -18.483803 0.000000 0.000001
												CHANNELS 3 Xrotation Yrotation Zrotation
												End Site
												{
													OFFSET 0 0 0
												}
											}
										}
									}
								}
							}
						}
					}
				}
			}
		}
	}
}
MOTION
Frames: 9
Frame Time: 0.03333333
0.822183 35.038609 -1.060539 0.000000 0.000000 0.000000 -3.424309 3.946120 -3.196274 -35.576710 -8.322838 -4.613633 58.199140 0.996556 0.543378 18.799259 2.532858 12.534671 -30.149456 0.513611 -5.652274 0.000000 0.000000 0.000000 -3.424309 3.946120 -3.196274 -13.721419 -10.729149 7.902267 32.429287 -0.058951 1.200553 9.654578 -0.789469 -9.033487 -26.815755 1.229715 -0.013265 0.000000 0.000000 0.000000 -3.424309 3.946120 -3.196274 7.486801 -0.427788 -0.768866 -2.114713 -0.634067 1.955413 0.000000 0.000000 0.000000 0.000000 0.000000 0.000000 -2.107417 -0.526125 1.991271 -6.842737 -2.682117 0.508893 2.526786 0.702883 0.466853 0.000000 0.000000 0.000000 -2.107417 -0.526125 1.991271 1.091366 1.577361 -3.543047 0.000000 0.000000 0.000000 -1.207958 1.492944 -78.012775 20.698682 -13.799229 -0.079246 0.000000 0.000000 0.000000 -2.107417 -0.526125 1.991271 0.487478 5.285028 4.297983 0.000000 0.000000 0.000000 -7.282519 4.832126 74.584846 13.988542 13.383140 -4.466988 0.000000 0.000000 0.000000 
0.808760 35.206135 0.283833 0.000000 0.000000 0.000000 -2.705172 2.951052 -2.368193 -36.967043 -6.063362 -4.571780 48.531462 0.834953 0.325481 20.684714 2.377211 11.284282 -26.021072 0.033118 -1.085497 0.000000 0.000000 0.000000 -2.705172 2.951052 -2.368193 -11.080762 -11.651463 6.267942 32.202781 2.586642 1.739713 6.561022 -0.959873 -9.481406 -27.699424 1.173566 0.505567 0.000000 0.000000 0.000000 -2.705172 2.951052 -2.368193 6.866796 -0.132885 -0.947883 -2.080432 -0.313498 1.675650 0.000000 0.000000 0.000000 0.000000 0.000000 0.000000 -2.058832 -0.215385 1.707925 -6.824232 -1.991732 0.148009 2.570388 1.192967 0.558138 0.000000 0.000000 0.000000 -2.058832 -0.215385 1.707925 1.161767 2.620605 -4.138928 0.000000 0.000000 0.000000 -0.675555 1.681688 -77.754013 23.741082 -14.201295 0.898233 0.000000 0.000000 0.000000 -2.058832 -0.215385 1.707925 0.521037 5.806645 4.065542 0.000000 0.000000 0.000000 -8.045854 5.987375 74.740363 12.972006 13.640120 -3.836557 0.000000 0.000000 0.000000 
0.823916 35.223907 1.675316 0.000000 0.000000 0.000000 -2.031383 2.021629 -2.070104 -37.904890 -2.742147 -4.246169 38.043699 -1.041204 0.116517 24.840414 3.568932 10.685159 -24.999025 0.025109 0.048793 0.000000 0.000000 0.000000 -2.031383 2.021629 -2.070104 -8.243950 -14.095747 5.215663 31.522621 6.477412 2.249965 4.016348 -0.796293 -11.022850 -27.825718 1.119663 1.113535 0.000000 0.000000 0.000000 -2.031383 2.021629 -2.070104 6.506098 0.172703 -0.308560 -2.164171 -0.087648 1.327396 0.000000 0.000000 0.000000 0.000000 0.000000 0.000000 -2.103373 -0.002019 1.355804 -6.706181 -1.103626 -0.543467 2.558714 1.719133 0.758874 0.000000 0.000000 0.000000 -2.103373 -0.002019 1.355804 1.326059 3.845521 -5.238607 0.000000 0.000000 0.000000 -0.005113 2.080358 -77.146481 25.494455 -14.592182 1.554053 0.000000 0.000000 0.000000 -2.103373 -0.002019 1.355804 0.568236 6.440963 3.658632 0.000000 0.000000 0.000000 -8.430290 8.119875 74.878312 10.227179 15.268102 -3.522362 0.000000 0.000000 0.000000 
0.884936 35.091423 3.090771 0.000000 0.000000 0.000000 -1.048867 0.678180 -1.900522 -39.456732 1.594582 -2.696397 29.446926 -0.693205 0.101151 27.867452 1.588919 6.288463 -25.008400 0.035715 0.070658 0.000000 0.000000 0.000000 -1.048867 0.678180 -1.900522 -6.117403 -16.630165 4.207411 31.734510 10.104269 2.240558 1.142441 -0.261099 -11.904119 -28.126056 1.064385 1.118148 0.000000 0.000000 0.000000 -1.048867 0.678180 -1.900522 6.136668 0.643034 0.729964 -2.415187 0.285827 0.861850 0.000000 0.000000 0.000000 0.000000 0.000000 0.000000 -2.279706 0.356749 0.875466 -6.516888 -0.113616 -1.146702 2.435895 2.406443 0.840325 0.000000 0.000000 0.000000 -2.279706 0.356749 0.875466 1.561009 4.901427 -6.502023 0.000000 0.000000 0.000000 0.928777 2.852957 -76.443716 25.950561 -15.000403 2.001433 0.000000 0.000000 0.000000 -2.279706 0.356749 0.875466 0.610010 6.612311 3.312162 0.000000 0.000000 0.000000 -8.250059 11.492341 74.614776 8.393946 17.168724 -3.295287 0.000000 0.000000 0.000000 
0.952432 34.903885 4.468513 0.000000 0.000000 0.000000 -0.578881 -0.367171 -2.306928 -40.877507 4.786759 -0.463427 23.026724 2.846091 0.063244 29.725096 -1.697385 0.780259 -25.054940 0.039551 0.078562 0.000000 0.000000 0.000000 -0.578881 -0.367171 -2.306928 -2.380586 -19.470779 4.122026 30.411383 13.501655 2.258244 -1.154828 0.333680 -13.155574 -28.666598 1.001513 1.596545 0.000000 0.000000 0.000000 -0.578881 -0.367171 -2.306928 6.238591 1.120089 1.042221 -2.713909 0.301719 1.515031 0.000000 0.000000 0.000000 0.000000 0.000000 0.000000 -2.581278 0.432835 1.513154 -6.177114 1.402242 -2.943447 2.310208 3.063962 1.261983 0.000000 0.000000 0.000000 -2.581278 0.432835 1.513154 2.076392 6.498109 -8.978067 0.000000 0.000000 0.000000 2.173335 3.162896 -75.453578 25.663959 -15.542401 2.187258 0.000000 0.000000 0.000000 -2.581278 0.432835 1.513154 0.968737 7.637016 0.422329 0.000000 0.000000 0.000000 -8.482544 11.768453 76.022895 9.287145 19.290447 -3.919842 0.000000 0.000000 0.000000 
1.067569 34.564156 5.812931 0.000000 0.000000 0.000000 -0.384898 -0.724285 -2.958413 -41.984258 3.679634 0.059040 15.505619 5.180480 -0.214570 34.472258 -2.775464 -1.481868 -25.202326 0.030374 0.059737 0.000000 0.000000 0.000000 -0.384898 -0.724285 -2.958413 2.071075 -21.122655 5.038072 29.541118 14.465974 2.060363 -4.803924 0.847459 -14.856981 -29.099485 0.941834 3.241008 0.000000 0.000000 0.000000 -0.384898 -0.724285 -2.958413 6.715921 1.413961 0.421448 -3.208121 -0.247009 3.170755 0.000000 0.000000 0.000000 0.000000 0.000000 0.000000 -3.188771 0.045642 3.159576 -5.411292 3.255760 -5.241168 2.023084 3.946269 1.433077 0.000000 0.000000 0.000000 -3.188771 0.045642 3.159576 2.835393 8.745198 -12.139130 0.000000 0.000000 0.000000 3.471255 3.542357 -74.801015 26.017447 -15.658000 2.050271 0.000000 0.000000 0.000000 -3.188771 0.045642 3.159576 1.385077 9.746114 -3.581031 0.000000 0.000000 0.000000 -8.462183 9.876553 78.056447 10.268717 20.394694 -4.235264 0.000000 0.000000 0.000000 
1.199726 34.082314 7.162511 0.000000 0.000000 0.000000 -0.226839 -0.371331 -3.660424 -42.505671 5.939200 -0.401160 8.593007 1.930269 0.189166 44.052087 -3.632672 -0.880836 -25.417670 0.001805 0.000576 0.000000 0.000000 0.000000 -0.226839 -0.371331 -3.660424 7.246169 -20.507551 7.015666 28.458567 12.195970 1.625358 -9.739174 1.053363 -16.256064 -29.544082 0.864603 3.878401 0.000000 0.000000 0.000000 -0.226839 -0.371331 -3.660424 8.370008 1.221137 1.515824 -4.428560 -0.841838 2.670545 0.000000 0.000000 0.000000 0.000000 0.000000 0.000000 -4.391909 -0.486678 2.610560 -6.338899 3.493517 -2.006122 3.383295 5.855997 -1.061604 0.000000 0.000000 0.000000 -4.391909 -0.486678 2.610560 2.354694 13.088301 -9.808267 0.000000 0.000000 0.000000 5.125864 2.817138 -77.012302 26.986822 -15.727945 1.865744 0.000000 0.000000 0.000000 -4.391909 -0.486678 2.610560 1.570664 10.149916 -3.118688 0.000000 0.000000 0.000000 -8.103342 11.000786 78.111546 7.715942 21.566034 -3.226938 0.000000 0.000000 0.000000 
1.288777 33.421387 8.619022 0.000000 0.000000 0.000000 -0.057124 0.161083 -3.717277 -42.198702 9.200789 -1.262005 4.489084 -2.302021 -0.275167 55.729276 -4.510380 -1.014227 -25.438307 -0.092789 -0.195541 0.000000 0.000000 0.000000 -0.057124 0.161083 -3.717277 12.077282 -19.152103 7.837055 28.052471 10.537674 1.766890 -15.094009 1.136151 -17.087911 -29.503374 0.826834 3.552926 0.000000 0.000000 0.000000 -0.057124 0.161083 -3.717277 7.424831 1.235430 0.855498 -4.027823 -1.000627 3.050759 0.000000 0.000000 0.000000 0.000000 0.000000 0.000000 -4.043320 -0.619600 3.030190 -7.198925 3.658304 -1.499533 3.713547 6.223303 -1.370684 0.000000 0.000000 0.000000 -4.043320 -0.619600 3.030190 2.295815 12.822120 -9.630633 0.000000 0.000000 0.000000 5.305736 4.107311 -77.522811 26.651345 -15.181634 1.988438 0.000000 0.000000 0.000000 -4.043320 -0.619600 3.030190 1.557812 9.742748 -3.276337 0.000000 0.000000 0.000000 -7.876892 11.200363 78.394678 6.955488 21.553729 -2.946498 0.000000 0.000000 0.000000 
1.350337 32.949883 10.052268 0.000000 0.000000 0.000000 -0.315788 0.534948 -3.052950 -45.139586 10.661701 -3.652423 15.501440 -5.246925 -0.848045 49.617230 -2.038259 6.109254 -25.196484 -0.122075 -0.254433 0.000000 0.000000 0.000000 -0.315788 0.534948 -3.052950 16.295336 -18.894477 6.857771 27.165191 11.179130 2.040358 -18.300679 0.912109 -16.808838 -29.261910 0.800721 2.869358 0.000000 0.000000 0.000000 -0.315788 0.534948 -3.052950 6.058959 1.215053 -0.011382 -3.304955 -0.825250 2.956956 0.000000 0.000000 0.000000 0.000000 0.000000 0.000000 -3.343149 -0.489881 2.978654 -7.669660 3.464297 -1.002385 3.894179 6.214333 -1.376463 0.000000 0.000000 0.000000 -3.343149 -0.489881 2.978654 2.183686 11.804455 -9.243070 0.000000 0.000000 0.000000 4.942622 4.913837 -77.674025 26.682665 -13.783506 1.543242 0.000000 0.000000 0.000000 -3.343149 -0.489881 2.978654 1.399756 8.691808 -2.714178 0.000000 0.000000 0.000000 -7.303351 12.078221 78.638304 10.044977 20.259084 -4.130506 0.000000 0.000000 0.000000 
